RWalking1_XZ.mot
version=1
datacolumns 20
datarows 30
range 1.140000 1.430000
inDegrees=yes
endheader
time	pelvis_tilt	pelvis_list	pelvis_rotation	hip_flexion_r	hip_adduction_r	hip_rotation_r	knee_angle_r	ankle_angle_r	hip_flexion_l	hip_adduction_l	hip_rotation_l	knee_angle_l	ankle_angle_l	pelvis_tx	pelvis_ty	pelvis_tz	lumbar_bending	lumbar_rotation	lumbar_extension
1.140000	-11.440401	1.025438	1.208129	0.083635	1.445620	-6.265298	-2.149182	9.121221	37.687134	-0.896015	-4.577748	-25.151510	1.719065	-0.630716	0.970847	0.005376	4.628779	0.595202	6.423693
1.150000	-11.102023	0.987266	1.164096	-1.419228	1.563001	-6.097763	-1.436950	9.248682	37.634153	-0.810524	-4.243145	-21.699057	1.557558	-0.619262	0.967783	0.004743	4.973112	0.602335	6.033371
1.160000	-10.768832	0.877519	1.088468	-2.891770	1.758120	-6.005955	-0.781763	9.364070	37.616988	-0.827418	-3.872386	-18.497893	1.323269	-0.607658	0.964559	0.003971	5.300140	0.683911	5.670663
1.170000	-10.467413	0.719901	0.972785	-4.293103	1.997945	-6.020724	-0.209936	9.485588	37.665847	-0.931542	-3.465241	-15.614559	1.043544	-0.595881	0.961219	0.003051	5.608327	0.821071	5.367698
1.180000	-10.221778	0.554966	0.814253	-5.588917	2.233714	-6.151498	0.257281	9.640779	37.791918	-1.089886	-3.029706	-13.093795	0.761434	-0.583900	0.957819	0.001999	5.897619	0.974654	5.149758
1.190000	-10.050175	0.427952	0.619359	-6.754644	2.414761	-6.380132	0.605148	9.860135	37.989534	-1.260047	-2.578981	-10.962984	0.529977	-0.571692	0.954430	0.000849	6.167264	1.096844	5.031350
1.200000	-9.962937	0.376727	0.403476	-7.776588	2.500675	-6.665973	0.824891	10.163414	38.240864	-1.399532	-2.127130	-9.236321	0.398586	-0.559248	0.951126	-0.000353	6.415379	1.144096	5.015695
1.210000	-9.960131	0.423644	0.186593	-8.652408	2.468918	-6.957889	0.910906	10.545783	38.519435	-1.473320	-1.686598	-7.916000	0.394225	-0.546571	0.947986	-0.001567	6.639362	1.087229	5.095148
1.220000	-10.028546	0.573542	-0.011051	-9.393047	2.316169	-7.201089	0.857789	10.977973	38.791014	-1.457333	-1.266565	-6.991364	0.510010	-0.533681	0.945081	-0.002765	6.834618	0.915761	5.250349
1.230000	-10.143809	0.817051	-0.173642	-10.020105	2.053576	-7.343092	0.658868	11.414560	39.017465	-1.339603	-0.874101	-6.437005	0.702110	-0.520606	0.942472	-0.003934	6.994483	0.636117	5.453117
1.240000	-10.280172	1.135608	-0.294769	-10.554716	1.700394	-7.347141	0.305392	11.799297	39.167170	-1.121439	-0.518295	-6.211888	0.892376	-0.507368	0.940206	-0.005079	7.113664	0.266789	5.676158
1.250000	-10.418757	1.505851	-0.377216	-11.008501	1.279735	-7.202660	-0.213826	12.072994	39.223786	-0.815858	-0.212014	-6.262504	0.984087	-0.493977	0.938316	-0.006224	7.190298	-0.166247	5.901172
1.260000	-10.549044	1.902900	-0.428536	-11.382737	0.816210	-6.921769	-0.912136	12.187756	39.187035	-0.443555	0.030884	-6.529950	0.895950	-0.480424	0.936816	-0.007403	7.226031	-0.633059	6.120173
1.270000	-10.667163	2.302934	-0.458384	-11.671178	0.333956	-6.528476	-1.804027	12.117570	39.068285	-0.029749	0.199807	-6.957860	0.593878	-0.466687	0.935707	-0.008656	7.227375	-1.103181	6.333151
1.280000	-10.771443	2.686775	-0.476099	-11.866253	-0.147439	-6.050500	-2.902295	11.854734	38.882306	0.400896	0.290074	-7.497664	0.090856	-0.452735	0.934978	-0.010014	7.204686	-1.550407	6.542395
1.290000	-10.858906	3.043623	-0.488490	-11.963582	-0.618938	-5.515854	-4.215267	11.393293	38.640656	0.830500	0.304288	-8.111910	-0.573221	-0.438537	0.934609	-0.011497	7.168418	-1.957836	6.747895
1.300000	-10.927715	3.370934	-0.500796	-11.957800	-1.083958	-4.953109	-5.746381	10.710098	38.353538	1.248365	0.253406	-8.778558	-1.340352	-0.424073	0.934575	-0.013118	7.127293	-2.319139	6.949740
1.310000	-10.980683	3.671047	-0.517314	-11.836860	-1.554048	-4.392092	-7.494451	9.756311	38.034886	1.647620	0.155119	-9.493991	-2.132942	-0.409348	0.934852	-0.014879	7.086861	-2.635686	7.152186
1.320000	-11.025645	3.948619	-0.539168	-11.580925	-2.043123	-3.862120	-9.455444	8.471878	37.703729	2.024601	0.028592	-10.270187	-2.856907	-0.394398	0.935416	-0.016771	7.047002	-2.913410	7.363804
1.330000	-11.073327	4.209572	-0.562581	-11.164134	-2.562586	-3.387901	-11.627845	6.822083	37.381015	2.379980	-0.111846	-11.125982	-3.413799	-0.379288	0.936247	-0.018774	7.001518	-3.160927	7.594065
1.340000	-11.132409	4.460148	-0.579846	-10.559814	-3.116897	-2.985508	-14.017190	4.822636	37.082030	2.718622	-0.261782	-12.075792	-3.722535	-0.364103	0.937320	-0.020853	6.940750	-3.387965	7.847140
1.350000	-11.205332	4.706459	-0.582367	-9.746664	-3.701671	-2.661263	-16.634888	2.534159	36.809034	3.048478	-0.428725	-13.119058	-3.744518	-0.348941	0.938608	-0.022962	6.855593	-3.604713	8.117635
1.360000	-11.289143	4.955454	-0.564663	-8.711284	-4.306090	-2.413069	-19.493224	0.052251	36.550401	3.379251	-0.629085	-14.234317	-3.497024	-0.333893	0.940080	-0.025046	6.741265	-3.822698	8.392853
1.370000	-11.378388	5.216063	-0.527453	-7.449406	-4.917420	-2.230117	-22.597266	-2.501313	36.284768	3.720971	-0.878982	-15.380654	-3.045079	-0.319035	0.941700	-0.027048	6.598516	-4.055022	8.658205
1.380000	-11.465498	5.498610	-0.477897	-5.969827	-5.524651	-2.090199	-25.933839	-5.002459	35.984740	4.083105	-1.180971	-16.504506	-2.476051	-0.304422	0.943435	-0.028916	6.431106	-4.313937	8.900332
1.390000	-11.539384	5.812493	-0.425859	-4.299035	-6.120225	-1.964177	-29.463448	-7.342188	35.619103	4.475008	-1.515451	-17.548208	-1.872264	-0.290087	0.945254	-0.030611	6.240602	-4.607033	9.107568
1.400000	-11.586104	6.162280	-0.379582	-2.480692	-6.699199	-1.828415	-33.121224	-9.413891	35.156494	4.904749	-1.844922	-18.458543	-1.294589	-0.276039	0.947137	-0.032120	6.023353	-4.933569	9.270777
1.410000	-11.594345	6.541734	-0.347030	-0.565021	-7.254468	-1.667025	-36.825329	-11.103991	34.572777	5.370847	-2.129076	-19.193827	-0.774673	-0.262265	0.949078	-0.033456	5.775170	-5.280649	9.387160
1.420000	-11.561225	6.927462	-0.339465	1.405019	-7.768517	-1.466913	-40.486607	-12.314216	33.857526	5.850893	-2.340633	-19.728135	-0.312807	-0.248736	0.951090	-0.034657	5.497916	-5.619456	9.463130
1.430000	-11.491674	7.277695	-0.368591	3.398269	-8.208820	-1.226207	-44.016811	-12.986969	33.013013	6.299641	-2.472706	-20.051373	0.112728	-0.235427	0.953201	-0.035783	5.197891	-5.905482	9.510523
